# xmcd
# 
# Track frame offsets:
#     150
#     1625
#     13165
#     22015
#     36797
#     45095
#     59247
#     75052
#     84917
#     101785
#     113900
#     124920
#     133927
#     140817
#     146360
#     149505
#     162867
#     174045
#     181560
#     191240
#     199155
#     208510
#     217542
#     225737
#     232795
#     240950
#     257345
#     269520
#     278070
#     285102
# 
# Disc length: 3908
# 
# Revision: 10
# Processed by: cddbd v1.5.2PL0 Copyright (c) Steve Scherf et al.
# Submitted via: fre:ac v1.0.31
# 
DISCID=8b0f421e
DTITLE=Various Artist - Raha paneb rattad käima 5 - Parimad õllelaulud
DYEAR=1999
DGENRE=Folk
TTITLE0=Külakutid - Õlletoost
TTITLE1=Mati Nuude - Viis kasti õlut
TTITLE2=Mihkel Smeljanski - Riksu Kaarel
TTITLE3=Solistide koor - Õllepruulija
TTITLE4=Ivo Linna - Õlletalgupolka
TTITLE5=Tarmo Pihlap - Rosamunde
TTITLE6=Mati Nuude - Sampanja
TTITLE7=Riho Rõõmus - Rõõmus õllelaul
TTITLE8=Ivo Linna - Joo sõber joo
TTITLE9=Vello Orumets - Me joome veel
TTITLE10=Ivo Linna - Sauna taga
TTITLE11=Erich Krieger - Joo õlut ja viina
TTITLE12=Vello Orumets - Kihnu neiu
TTITLE13=Boris Lehtlaan - Las käia armas peremees
TTITLE14=Külakutid - Selle peale vanad eestlased
TTITLE15=Märt Rannamäe - Metsa läksid sa
TTITLE16=Vello Orumets - Rulladi rulla
TTITLE17=Ivo Linna - Süda tuksub tuks tuks tuks
TTITLE18=Riho Rõõmus - Õllejenka
TTITLE19=Jnsa - Eesti õlu
TTITLE20=Andres Ots - Puuriidalaul
TTITLE21=Vello Orumets - Põdra maja
TTITLE22=Külakutid - Tibutants
TTITLE23=Jansa - Tinna
TTITLE24=Erich Krieger - Taat
TTITLE25=Boris Lehtlaan - Sind ainult palun isa!
TTITLE26=Jansa - Juhhei!
TTITLE27=Ivo Linna - Mats alati on tubli mees
TTITLE28=Külakutid - Läti õllevalss
TTITLE29=Külakutid - Mamma, ma tahan...
EXTD=
EXTT0=
EXTT1=
EXTT2=
EXTT3=
EXTT4=
EXTT5=
EXTT6=
EXTT7=
EXTT8=
EXTT9=
EXTT10=
EXTT11=
EXTT12=
EXTT13=
EXTT14=
EXTT15=
EXTT16=
EXTT17=
EXTT18=
EXTT19=
EXTT20=
EXTT21=
EXTT22=
EXTT23=
EXTT24=
EXTT25=
EXTT26=
EXTT27=
EXTT28=
EXTT29=
PLAYORDER=
